<svg width="79" height="65" viewBox="0 0 79 65" fill="none" xmlns="http://www.w3.org/2000/svg">
<path d="M23.996 64.424H15.716V56.72C11.012 55.952 7.364 54.104 4.772 51.176C2.18 48.2 0.74 45.032 0.452 41.672L10.388 39.44C10.58 41.696 11.468 43.592 13.052 45.128C14.636 46.616 16.892 47.36 19.82 47.36C21.644 47.36 23.132 46.952 24.284 46.136C25.436 45.32 26.012 44.216 26.012 42.824C26.012 40.76 24.524 39.392 21.548 38.72L15.14 37.208C11.06 36.248 7.868 34.568 5.564 32.168C3.26 29.768 2.108 26.888 2.108 23.528C2.108 19.64 3.38 16.352 5.924 13.664C8.516 10.976 11.78 9.296 15.716 8.624V0.847998H23.996V8.84C27.644 9.656 30.5 11.216 32.564 13.52C34.628 15.776 35.948 18.32 36.524 21.152L26.516 23.816C25.748 19.832 23.3 17.84 19.172 17.84C17.252 17.84 15.764 18.32 14.708 19.28C13.652 20.192 13.124 21.272 13.124 22.52C13.124 24.584 14.54 25.952 17.372 26.624L23.636 27.992C28.244 29 31.628 30.776 33.788 33.32C35.996 35.816 37.1 38.792 37.1 42.248C37.1 45.704 35.924 48.776 33.572 51.464C31.22 54.152 28.028 55.856 23.996 56.576V64.424ZM42.3923 42.68L52.9043 40.52C53.0003 42.44 53.7203 44.096 55.0643 45.488C56.4563 46.832 58.2563 47.504 60.4643 47.504C62.4323 47.504 64.0883 46.904 65.4323 45.704C66.7763 44.456 67.4483 42.8 67.4483 40.736C67.4483 38.528 66.7283 36.824 65.2883 35.624C63.8963 34.424 62.1923 33.824 60.1763 33.824C57.4403 33.824 55.2563 34.832 53.6243 36.848L52.0403 36.272C50.9363 35.936 49.7603 35.576 48.5123 35.192C47.3123 34.808 46.1843 34.448 45.1283 34.112C44.0723 33.776 43.5203 33.584 43.4723 33.536L48.7283 9.272H75.8723V18.776H56.5763L54.7043 27.56C56.6243 25.88 59.2643 25.04 62.6243 25.04C67.5203 25.04 71.4323 26.408 74.3603 29.144C77.2883 31.88 78.7523 35.72 78.7523 40.664C78.7523 45.224 77.0963 49.112 73.7843 52.328C70.5203 55.544 66.0803 57.152 60.4643 57.152C55.4723 57.152 51.2723 55.712 47.8643 52.832C44.5043 49.904 42.6803 46.52 42.3923 42.68Z" fill="#F3CD03"/>
</svg>
