<svg width="1121" height="53" viewBox="0 0 1121 53" fill="none" xmlns="http://www.w3.org/2000/svg">
<path d="M7.4922 0L1113.29 0C1115.72 0 1116.6 0.222076 1117.49 0.639087C1118.38 1.0561 1119.08 1.66805 1119.55 2.44779C1120.03 3.22754 1120.28 4.00096 1120.28 6.13383V52.6327H0.5L0.5 6.13383C0.5 4.00096 0.753153 3.22754 1.22852 2.44779C1.70389 1.66805 2.40147 1.0561 3.29033 0.639087C4.1792 0.222076 5.06086 0 7.4922 0Z" fill="#E2E3E5"/>
<path d="M30.7718 32.5366C34.5373 32.5366 37.5898 29.8588 37.5898 26.5556C37.5898 23.2524 34.5373 20.5746 30.7718 20.5746C27.0064 20.5746 23.9539 23.2524 23.9539 26.5556C23.9539 29.8588 27.0064 32.5366 30.7718 32.5366Z" fill="#C4C6CA"/>
<path d="M55.3165 32.5366C59.082 32.5366 62.1345 29.8588 62.1345 26.5556C62.1345 23.2524 59.082 20.5746 55.3165 20.5746C51.5511 20.5746 48.4986 23.2524 48.4986 26.5556C48.4986 29.8588 51.5511 32.5366 55.3165 32.5366Z" fill="#C4C6CA"/>
<path d="M79.8612 32.5366C83.6267 32.5366 86.6792 29.8588 86.6792 26.5556C86.6792 23.2524 83.6267 20.5746 79.8612 20.5746C76.0958 20.5746 73.0433 23.2524 73.0433 26.5556C73.0433 29.8588 76.0958 32.5366 79.8612 32.5366Z" fill="#C4C6CA"/>
<path d="M117.447 14.3544L1089.52 14.3544C1090.73 14.3544 1091.17 14.4654 1091.62 14.6739C1092.06 14.8824 1092.41 15.1884 1092.65 15.5783C1092.88 15.9681 1093.01 16.3549 1093.01 17.4213V35.2114C1093.01 36.2778 1092.88 36.6646 1092.65 37.0544C1092.41 37.4443 1092.06 37.7503 1091.62 37.9588C1091.17 38.1673 1090.73 38.2783 1089.52 38.2783H117.447C116.231 38.2783 115.791 38.1673 115.346 37.9588C114.902 37.7503 114.553 37.4443 114.315 37.0544C114.078 36.6646 113.951 36.2778 113.951 35.2114V17.4213C113.951 16.3549 114.078 15.9681 114.315 15.5783C114.553 15.1884 114.902 14.8824 115.346 14.6739C115.791 14.4654 116.231 14.3544 117.447 14.3544Z" fill="white"/>
</svg>
