<svg width="210" height="51" viewBox="0 0 210 51" fill="none" xmlns="http://www.w3.org/2000/svg">
<g clip-path="url(#clip0)">
<path d="M45.6279 12.5032C44.1234 13.1522 42.4862 13.6193 40.7998 13.8012C42.5507 12.7611 43.8618 11.1177 44.4873 9.17961C42.8443 10.157 41.0444 10.8423 39.1675 11.2053C38.383 10.3666 37.4342 9.69851 36.3803 9.24258C35.3263 8.78665 34.1897 8.55266 33.0414 8.5552C28.3951 8.5552 24.6585 12.3213 24.6585 16.943C24.6585 17.592 24.7372 18.241 24.865 18.8654C17.908 18.5015 11.7032 15.1779 7.57815 10.0892C6.82652 11.373 6.43264 12.8348 6.43749 14.3224C6.43749 17.233 7.9174 19.7995 10.1741 21.3089C8.8442 21.2566 7.54542 20.891 6.38341 20.242V20.3453C6.38341 24.4212 9.26455 27.7989 13.1044 28.5757C12.3835 28.763 11.6418 28.8588 10.8969 28.8609C10.3511 28.8609 9.83488 28.8068 9.31372 28.733C10.3757 32.0567 13.4683 34.4707 17.1508 34.5494C14.2697 36.8061 10.6609 38.1336 6.74233 38.1336C6.03925 38.1336 5.39025 38.109 4.71667 38.0304C8.43364 40.4149 12.8439 41.7916 17.5933 41.7916C33.0119 41.7916 41.4488 29.0182 41.4488 17.9312C41.4488 17.5674 41.4488 17.2035 41.4242 16.8397C43.0565 15.645 44.4873 14.1651 45.6279 12.5032Z" fill="#112D57"/>
<path d="M123.093 5.50684H86.9065C86.0362 5.50684 85.3331 6.20991 85.3331 7.08016V43.2665C85.3331 44.1368 86.0362 44.8399 86.9065 44.8399H123.093C123.963 44.8399 124.666 44.1368 124.666 43.2665V7.08016C124.666 6.20991 123.963 5.50684 123.093 5.50684ZM118.55 16.9872H115.408C112.945 16.9872 112.468 18.1573 112.468 19.8781V23.6689H118.348L117.581 29.6032H112.468V44.8399H106.337V29.6081H101.209V23.6689H106.337V19.2931C106.337 14.2142 109.439 11.4461 113.972 11.4461C116.146 11.4461 118.009 11.6084 118.555 11.6821V16.9872H118.55Z" fill="#112D57"/>
<path d="M202.921 5.50684H166.735C165.865 5.50684 165.161 6.20991 165.161 7.08016V43.2665C165.161 44.1368 165.865 44.8399 166.735 44.8399H202.921C203.791 44.8399 204.495 44.1368 204.495 43.2665V7.08016C204.495 6.20991 203.791 5.50684 202.921 5.50684ZM176.829 39.0235H170.993V20.2518H176.829V39.0235ZM173.913 17.6853C173.244 17.6853 172.59 17.4869 172.034 17.1152C171.478 16.7436 171.044 16.2153 170.788 15.5972C170.532 14.9791 170.465 14.2989 170.595 13.6428C170.726 12.9866 171.048 12.3839 171.521 11.9108C171.994 11.4377 172.597 11.1156 173.253 10.985C173.909 10.8545 174.589 10.9215 175.208 11.1775C175.826 11.4336 176.354 11.8671 176.726 12.4234C177.097 12.9797 177.296 13.6337 177.296 14.3027C177.291 16.171 175.776 17.6853 173.913 17.6853ZM198.678 39.0235H192.847V29.8933C192.847 27.7152 192.808 24.9177 189.813 24.9177C186.78 24.9177 186.313 27.2875 186.313 29.736V39.0235H180.487V20.2518H186.082V22.8183H186.16C186.937 21.3433 188.84 19.7847 191.682 19.7847C197.592 19.7847 198.678 23.6738 198.678 28.7281V39.0235Z" fill="#112D57"/>
</g>
<defs>
<clipPath id="clip0">
<rect width="210" height="50.3463" fill="white"/>
</clipPath>
</defs>
</svg>
